<svg width="213" height="104" viewBox="0 0 213 104" fill="none" xmlns="http://www.w3.org/2000/svg">
<path d="M81.7477 102.042L64.5624 64.0306C64.2351 63.3069 64.8417 62.5089 65.6266 62.6305L100.18 67.9825C100.959 68.1032 101.299 69.0358 100.78 69.6292L89.6157 82.3911C89.4563 82.5734 89.3684 82.8073 89.3684 83.0495V101.63C89.3684 102.183 88.9207 102.63 88.3684 102.63H82.6589C82.266 102.63 81.9095 102.4 81.7477 102.042Z" fill="black" stroke="black"/>
<path d="M93.8258 21.3859L66.1824 38.6841C65.385 39.183 65.6549 40.4067 66.5882 40.524L107.293 45.6373C107.682 45.6861 108.063 45.5038 108.268 45.1709L118.298 28.9432C118.389 28.7952 118.518 28.6737 118.671 28.5905L151.888 10.5232C152.21 10.3481 152.41 10.0111 152.41 9.6447V2.40619C152.41 1.71827 151.732 1.23578 151.082 1.4616L94.028 21.2891C93.9571 21.3137 93.8893 21.3462 93.8258 21.3859Z" fill="black" stroke="black"/>
<path d="M163.267 55.4184L178.243 34.2031C179.847 31.9314 183.411 32.8751 183.68 35.6427L185.774 57.1644L206.833 41.3065C208.482 40.065 210.702 41.8308 209.864 43.7166L194.023 79.3478L171.774 67.7065L181.828 60.1356L163.267 55.4184Z" fill="black" stroke="black"/>
<path d="M6.81 50.8466L1.76541 45.3415L6.40196 39.686L12.4388 37.319L20.6655 36.7648L27.9213 36.3699L48.2038 37.509L83.3604 40.491L123.451 47.1913L166.655 55.8587L200.454 65.3656L204.118 68.7109L203.341 73.8861L201.133 78.5007L194.955 81.8086L150.464 79.1956L96.0696 73.1592L47.2958 65.0078L22.4559 57.6412L6.81 50.8466Z" fill="black" stroke="black"/>
<path d="M196.724 76.3914H181.078C180.526 76.3914 180.078 76.8391 180.078 77.3914V99.8187C180.078 100.797 181.339 101.193 181.899 100.391L197.544 77.9635C198.006 77.3006 197.532 76.3914 196.724 76.3914Z" fill="black" stroke="black"/>
</svg>
