<svg width="225" height="131" viewBox="0 0 225 131" fill="none" xmlns="http://www.w3.org/2000/svg">
<circle cx="115.5" cy="13.5" r="13.5" fill="black"/>
<circle cx="88.5" cy="77.5" r="6.5" fill="black"/>
<circle cx="142.5" cy="77.5" r="6.5" fill="black"/>
<circle cx="126.5" cy="124.5" r="6.5" fill="black"/>
<circle cx="104.5" cy="124.5" r="6.5" fill="black"/>
<circle cx="88.5" cy="40.5" r="6.5" fill="#D9D9D9"/>
<circle cx="142.5" cy="40.5" r="6.5" fill="#D9D9D9"/>
<rect x="82" y="41" width="13" height="37" fill="#D9D9D9"/>
<rect x="136" y="41" width="13" height="37" fill="#D9D9D9"/>
<circle cx="88.5" cy="40.5" r="6.5" fill="black"/>
<circle cx="142.5" cy="40.5" r="6.5" fill="black"/>
<rect x="82" y="41" width="13" height="37" fill="black"/>
<rect x="136" y="41" width="13" height="37" fill="black"/>
<rect x="89" y="34" width="53" height="10" fill="black"/>
<rect x="98" y="44" width="35" height="81" fill="black"/>
<rect x="111" y="85" width="9" height="40" fill="white"/>
<circle cx="115.5" cy="84.5" r="4.5" fill="white"/>
<ellipse cx="62.4999" cy="33.2328" rx="10.6791" ry="11.2328" fill="black"/>
<ellipse cx="41.1418" cy="86.4848" rx="5.14179" ry="5.4084" fill="black"/>
<ellipse cx="83.8581" cy="86.4848" rx="5.14179" ry="5.4084" fill="black"/>
<ellipse cx="71.2016" cy="125.592" rx="5.14179" ry="5.4084" fill="black"/>
<ellipse cx="53.7985" cy="125.592" rx="5.14179" ry="5.4084" fill="black"/>
<ellipse cx="41.1418" cy="55.6984" rx="5.14179" ry="5.4084" fill="#D9D9D9"/>
<ellipse cx="83.8581" cy="55.6984" rx="5.14179" ry="5.4084" fill="#D9D9D9"/>
<rect x="36" y="56.1145" width="10.2836" height="30.7863" fill="#D9D9D9"/>
<rect x="78.7163" y="56.1145" width="10.2836" height="30.7863" fill="#D9D9D9"/>
<ellipse cx="41.1418" cy="55.6984" rx="5.14179" ry="5.4084" fill="black"/>
<ellipse cx="83.8581" cy="55.6984" rx="5.14179" ry="5.4084" fill="black"/>
<rect x="36" y="56.1145" width="10.2836" height="30.7863" fill="black"/>
<rect x="78.7163" y="56.1145" width="10.2836" height="30.7863" fill="black"/>
<rect x="41.5374" y="50.29" width="41.9254" height="8.32061" fill="black"/>
<rect x="48.6567" y="58.6106" width="27.6866" height="67.3969" fill="black"/>
<rect x="58.9402" y="92.7251" width="7.1194" height="33.2824" fill="white"/>
<ellipse cx="62.4999" cy="92.3092" rx="3.5597" ry="3.74427" fill="white"/>
<ellipse cx="162.5" cy="33.2328" rx="10.6791" ry="11.2328" fill="black"/>
<ellipse cx="141.142" cy="86.4848" rx="5.14179" ry="5.4084" fill="black"/>
<ellipse cx="183.858" cy="86.4848" rx="5.14179" ry="5.4084" fill="black"/>
<ellipse cx="171.202" cy="125.592" rx="5.14179" ry="5.4084" fill="black"/>
<ellipse cx="153.799" cy="125.592" rx="5.14179" ry="5.4084" fill="black"/>
<ellipse cx="141.142" cy="55.6984" rx="5.14179" ry="5.4084" fill="#D9D9D9"/>
<ellipse cx="183.858" cy="55.6984" rx="5.14179" ry="5.4084" fill="#D9D9D9"/>
<rect x="136" y="56.1145" width="10.2836" height="30.7863" fill="#D9D9D9"/>
<rect x="178.716" y="56.1145" width="10.2836" height="30.7863" fill="#D9D9D9"/>
<ellipse cx="141.142" cy="55.6984" rx="5.14179" ry="5.4084" fill="black"/>
<ellipse cx="183.858" cy="55.6984" rx="5.14179" ry="5.4084" fill="black"/>
<rect x="136" y="56.1145" width="10.2836" height="30.7863" fill="black"/>
<rect x="178.716" y="56.1145" width="10.2836" height="30.7863" fill="black"/>
<rect x="141.537" y="50.29" width="41.9254" height="8.32061" fill="black"/>
<rect x="148.657" y="58.6106" width="27.6866" height="67.3969" fill="black"/>
<rect x="158.94" y="92.7251" width="7.1194" height="33.2824" fill="white"/>
<ellipse cx="162.5" cy="92.3092" rx="3.5597" ry="3.74427" fill="white"/>
<ellipse cx="23.0001" cy="43.0992" rx="9.26866" ry="10.0992" fill="black"/>
<ellipse cx="4.46269" cy="90.9771" rx="4.46269" ry="4.8626" fill="black"/>
<ellipse cx="41.5374" cy="90.9771" rx="4.46269" ry="4.8626" fill="black"/>
<ellipse cx="30.5523" cy="126.137" rx="4.46269" ry="4.86259" fill="black"/>
<ellipse cx="15.4478" cy="126.137" rx="4.46269" ry="4.86259" fill="black"/>
<ellipse cx="4.46269" cy="63.2977" rx="4.46269" ry="4.8626" fill="#D9D9D9"/>
<ellipse cx="41.5374" cy="63.2977" rx="4.46269" ry="4.8626" fill="#D9D9D9"/>
<rect y="63.6719" width="8.92537" height="27.6794" fill="#D9D9D9"/>
<rect x="37.0747" y="63.6719" width="8.92537" height="27.6794" fill="#D9D9D9"/>
<ellipse cx="4.46269" cy="63.2977" rx="4.46269" ry="4.8626" fill="black"/>
<ellipse cx="41.5374" cy="63.2977" rx="4.46269" ry="4.8626" fill="black"/>
<rect y="63.6719" width="8.92537" height="27.6794" fill="black"/>
<rect x="37.0747" y="63.6719" width="8.92537" height="27.6794" fill="black"/>
<rect x="4.80591" y="58.4351" width="36.3881" height="7.48092" fill="black"/>
<rect x="10.9851" y="65.916" width="24.0299" height="60.5954" fill="black"/>
<rect x="19.9104" y="96.5879" width="6.1791" height="29.9237" fill="white"/>
<ellipse cx="23" cy="96.2138" rx="3.08955" ry="3.36641" fill="white"/>
<ellipse cx="202" cy="43.0992" rx="9.26866" ry="10.0992" fill="black"/>
<ellipse cx="183.463" cy="90.9771" rx="4.46269" ry="4.8626" fill="black"/>
<ellipse cx="220.537" cy="90.9771" rx="4.46269" ry="4.8626" fill="black"/>
<ellipse cx="209.552" cy="126.137" rx="4.46269" ry="4.86259" fill="black"/>
<ellipse cx="194.448" cy="126.137" rx="4.46269" ry="4.86259" fill="black"/>
<ellipse cx="183.463" cy="63.2977" rx="4.46269" ry="4.8626" fill="#D9D9D9"/>
<ellipse cx="220.537" cy="63.2977" rx="4.46269" ry="4.8626" fill="#D9D9D9"/>
<rect x="179" y="63.6719" width="8.92537" height="27.6794" fill="#D9D9D9"/>
<rect x="216.075" y="63.6719" width="8.92537" height="27.6794" fill="#D9D9D9"/>
<ellipse cx="183.463" cy="63.2977" rx="4.46269" ry="4.8626" fill="black"/>
<ellipse cx="220.537" cy="63.2977" rx="4.46269" ry="4.8626" fill="black"/>
<rect x="179" y="63.6719" width="8.92537" height="27.6794" fill="black"/>
<rect x="216.075" y="63.6719" width="8.92537" height="27.6794" fill="black"/>
<rect x="183.806" y="58.4351" width="36.3881" height="7.48092" fill="black"/>
<rect x="189.985" y="65.916" width="24.0299" height="60.5954" fill="black"/>
<rect x="198.91" y="96.5879" width="6.1791" height="29.9237" fill="white"/>
<ellipse cx="202" cy="96.2138" rx="3.08955" ry="3.36641" fill="white"/>
</svg>
