<svg width="153" height="77" viewBox="0 0 153 77" fill="none" xmlns="http://www.w3.org/2000/svg">
<path d="M11.2727 15.4545V62H5.63636V15.4545H11.2727Z" fill="#002656"/>
<path d="M29 62H14.6364V15.4545H29.6364C34.1515 15.4545 38.0152 16.3864 41.2273 18.25C44.4394 20.0985 46.9015 22.7576 48.6136 26.2273C50.3258 29.6818 51.1818 33.8182 51.1818 38.6364C51.1818 43.4848 50.3182 47.6591 48.5909 51.1591C46.8636 54.6439 44.3485 57.3258 41.0455 59.2045C37.7424 61.0682 33.7273 62 29 62ZM20.2727 57H28.6364C32.4848 57 35.6742 56.2576 38.2045 54.7727C40.7348 53.2879 42.6212 51.1742 43.8636 48.4318C45.1061 45.6894 45.7273 42.4242 45.7273 38.6364C45.7273 34.8788 45.1136 31.6439 43.8864 28.9318C42.6591 26.2045 40.8258 24.1136 38.3864 22.6591C35.947 21.1894 32.9091 20.4545 29.2727 20.4545H20.2727V57Z" fill="#002656"/>
<path d="M74.0909 30H68.4545C68.1212 28.3788 67.5379 26.9545 66.7045 25.7273C65.8864 24.5 64.8864 23.4697 63.7045 22.6364C62.5379 21.7879 61.2424 21.1515 59.8182 20.7273C58.3939 20.303 56.9091 20.0909 55.3636 20.0909C52.5455 20.0909 49.9924 20.803 47.7045 22.2273C45.4318 23.6515 43.6212 25.75 42.2727 28.5227C40.9394 31.2955 40.2727 34.697 40.2727 38.7273C40.2727 42.7576 40.9394 46.1591 42.2727 48.9318C43.6212 51.7045 45.4318 53.803 47.7045 55.2273C49.9924 56.6515 52.5455 57.3636 55.3636 57.3636C56.9091 57.3636 58.3939 57.1515 59.8182 56.7273C61.2424 56.303 62.5379 55.6742 63.7045 54.8409C64.8864 53.9924 65.8864 52.9545 66.7045 51.7273C67.5379 50.4848 68.1212 49.0606 68.4545 47.4545H74.0909C73.6667 49.8333 72.8939 51.9621 71.7727 53.8409C70.6515 55.7197 69.2576 57.3182 67.5909 58.6364C65.9242 59.9394 64.053 60.9318 61.9773 61.6136C59.9167 62.2955 57.7121 62.6364 55.3636 62.6364C51.3939 62.6364 47.8636 61.6667 44.7727 59.7273C41.6818 57.7879 39.25 55.0303 37.4773 51.4545C35.7045 47.8788 34.8182 43.6364 34.8182 38.7273C34.8182 33.8182 35.7045 29.5758 37.4773 26C39.25 22.4242 41.6818 19.6667 44.7727 17.7273C47.8636 15.7879 51.3939 14.8182 55.3636 14.8182C57.7121 14.8182 59.9167 15.1591 61.9773 15.8409C64.053 16.5227 65.9242 17.5227 67.5909 18.8409C69.2576 20.1439 70.6515 21.7348 71.7727 23.6136C72.8939 25.4773 73.6667 27.6061 74.0909 30Z" fill="#002656"/>
<path d="M55.9659 33.017V31.4545H66.875V33.017H62.3011V46H60.5398V33.017H55.9659ZM68.2333 46V35.0909H69.8526V36.7386H69.9663C70.1651 36.1989 70.525 35.7609 71.0458 35.4247C71.5666 35.0885 72.1538 34.9205 72.8072 34.9205C72.9303 34.9205 73.0842 34.9228 73.2688 34.9276C73.4535 34.9323 73.5932 34.9394 73.6879 34.9489V36.6534C73.631 36.6392 73.5008 36.6179 73.2972 36.5895C73.0984 36.5563 72.8877 36.5398 72.6651 36.5398C72.1348 36.5398 71.6613 36.651 71.2447 36.8736C70.8327 37.0914 70.506 37.3944 70.2646 37.7827C70.0278 38.1662 69.9094 38.6042 69.9094 39.0966V46H68.2333ZM78.8849 46.2557C78.1937 46.2557 77.5663 46.1255 77.0028 45.8651C76.4394 45.5999 75.992 45.2188 75.6605 44.7216C75.3291 44.2197 75.1634 43.6136 75.1634 42.9034C75.1634 42.2784 75.2865 41.7718 75.5327 41.3835C75.7789 40.9905 76.108 40.6828 76.5199 40.4602C76.9318 40.2377 77.3864 40.072 77.8835 39.9631C78.3854 39.8494 78.8897 39.7595 79.3963 39.6932C80.0592 39.608 80.5966 39.544 81.0085 39.5014C81.4252 39.4541 81.7282 39.3759 81.9176 39.267C82.1117 39.1581 82.2088 38.9687 82.2088 38.6989V38.642C82.2088 37.9413 82.017 37.3968 81.6335 37.0085C81.2547 36.6203 80.6795 36.4261 79.9077 36.4261C79.1075 36.4261 78.4801 36.6013 78.0256 36.9517C77.571 37.3021 77.2514 37.6761 77.0668 38.0739L75.4759 37.5057C75.7599 36.8428 76.1387 36.3267 76.6122 35.9574C77.0904 35.5833 77.6113 35.3229 78.1747 35.1761C78.7429 35.0246 79.3016 34.9489 79.8509 34.9489C80.2012 34.9489 80.6037 34.9915 81.0582 35.0767C81.5175 35.1572 81.9602 35.3253 82.3864 35.581C82.8172 35.8366 83.1747 36.2225 83.4588 36.7386C83.7429 37.2547 83.8849 37.946 83.8849 38.8125V46H82.2088V44.5227H82.1236C82.0099 44.7595 81.8205 45.0128 81.5554 45.2827C81.2902 45.5526 80.9375 45.7822 80.4972 45.9716C80.0568 46.161 79.5194 46.2557 78.8849 46.2557ZM79.1406 44.75C79.8035 44.75 80.3622 44.6198 80.8168 44.3594C81.276 44.099 81.6217 43.7628 81.8537 43.3509C82.0904 42.9389 82.2088 42.5057 82.2088 42.0511V40.517C82.1378 40.6023 81.9815 40.6804 81.7401 40.7514C81.5033 40.8177 81.2287 40.8769 80.9162 40.929C80.6084 40.9763 80.3078 41.0189 80.0142 41.0568C79.7254 41.09 79.491 41.1184 79.3111 41.142C78.8755 41.1989 78.4683 41.2912 78.0895 41.419C77.7154 41.5421 77.4124 41.7292 77.1804 41.9801C76.9531 42.2263 76.8395 42.5625 76.8395 42.9886C76.8395 43.571 77.0549 44.0114 77.4858 44.3097C77.9214 44.6032 78.473 44.75 79.1406 44.75ZM95.4741 35.0909L91.44 46H89.7354L85.7013 35.0909H87.5195L90.5309 43.7841H90.6445L93.6559 35.0909H95.4741ZM101.87 46.2273C100.819 46.2273 99.9118 45.9953 99.1495 45.5312C98.3919 45.0625 97.8072 44.4091 97.3952 43.571C96.988 42.7282 96.7844 41.7481 96.7844 40.6307C96.7844 39.5133 96.988 38.5284 97.3952 37.6761C97.8072 36.8191 98.3801 36.1515 99.114 35.6733C99.8526 35.1903 100.714 34.9489 101.699 34.9489C102.267 34.9489 102.828 35.0436 103.382 35.233C103.936 35.4223 104.441 35.7301 104.895 36.1562C105.35 36.5777 105.712 37.1364 105.982 37.8324C106.252 38.5284 106.387 39.3854 106.387 40.4034V41.1136H97.9776V39.6648H104.682C104.682 39.0492 104.559 38.5 104.313 38.017C104.071 37.5341 103.726 37.1529 103.276 36.8736C102.831 36.5942 102.305 36.4545 101.699 36.4545C101.032 36.4545 100.454 36.6203 99.9663 36.9517C99.4833 37.2784 99.1116 37.7045 98.8512 38.2301C98.5908 38.7557 98.4606 39.3191 98.4606 39.9205V40.8864C98.4606 41.7102 98.6026 42.4086 98.8867 42.9815C99.1755 43.5497 99.5756 43.983 100.087 44.2812C100.598 44.5748 101.193 44.7216 101.87 44.7216C102.31 44.7216 102.708 44.66 103.063 44.5369C103.423 44.4091 103.733 44.2197 103.993 43.9688C104.254 43.7131 104.455 43.3958 104.597 43.017L106.216 43.4716C106.046 44.0208 105.759 44.5038 105.357 44.9205C104.954 45.3324 104.457 45.6544 103.865 45.8864C103.274 46.1136 102.608 46.2273 101.87 46.2273ZM110.613 31.4545V46H108.936V31.4545H110.613ZM124.052 35.0909V36.5114H118.398V35.0909H124.052ZM120.046 32.4773H121.722V42.875C121.722 43.3485 121.791 43.7036 121.928 43.9403C122.07 44.1723 122.25 44.3286 122.468 44.4091C122.691 44.4848 122.925 44.5227 123.171 44.5227C123.356 44.5227 123.507 44.5133 123.626 44.4943C123.744 44.4706 123.839 44.4517 123.91 44.4375L124.251 45.9432C124.137 45.9858 123.978 46.0284 123.775 46.071C123.571 46.1184 123.313 46.142 123.001 46.142C122.527 46.142 122.063 46.0402 121.609 45.8366C121.159 45.633 120.785 45.3229 120.487 44.9062C120.193 44.4896 120.046 43.964 120.046 43.3295V32.4773ZM126.573 46V35.0909H128.249V46H126.573ZM127.425 33.2727C127.099 33.2727 126.817 33.1615 126.58 32.9389C126.348 32.7164 126.232 32.4489 126.232 32.1364C126.232 31.8239 126.348 31.5563 126.58 31.3338C126.817 31.1113 127.099 31 127.425 31C127.752 31 128.031 31.1113 128.263 31.3338C128.5 31.5563 128.619 31.8239 128.619 32.1364C128.619 32.4489 128.5 32.7164 128.263 32.9389C128.031 33.1615 127.752 33.2727 127.425 33.2727ZM131.319 50.0909V35.0909H132.939V36.8239H133.137C133.261 36.6345 133.431 36.393 133.649 36.0994C133.871 35.8011 134.189 35.536 134.6 35.304C135.017 35.0672 135.581 34.9489 136.291 34.9489C137.209 34.9489 138.019 35.1785 138.72 35.6378C139.421 36.0971 139.967 36.7481 140.36 37.5909C140.753 38.4337 140.95 39.428 140.95 40.5739C140.95 41.7292 140.753 42.7306 140.36 43.5781C139.967 44.4209 139.423 45.0743 138.727 45.5384C138.031 45.9976 137.228 46.2273 136.319 46.2273C135.618 46.2273 135.057 46.1113 134.636 45.8793C134.215 45.6425 133.89 45.375 133.663 45.0767C133.436 44.7737 133.261 44.5227 133.137 44.3239H132.995V50.0909H131.319ZM132.967 40.5455C132.967 41.3693 133.088 42.0961 133.329 42.7259C133.571 43.3509 133.923 43.8409 134.387 44.196C134.851 44.5464 135.42 44.7216 136.092 44.7216C136.793 44.7216 137.377 44.5369 137.846 44.1676C138.32 43.7936 138.675 43.2917 138.912 42.6619C139.153 42.0275 139.274 41.322 139.274 40.5455C139.274 39.7784 139.155 39.0871 138.919 38.4716C138.687 37.8513 138.334 37.3613 137.86 37.0014C137.392 36.6368 136.802 36.4545 136.092 36.4545C135.41 36.4545 134.837 36.6274 134.373 36.973C133.909 37.3139 133.559 37.7921 133.322 38.4077C133.085 39.0185 132.967 39.7311 132.967 40.5455ZM151.234 37.5341L149.728 37.9602C149.634 37.7093 149.494 37.4654 149.309 37.2287C149.129 36.9872 148.883 36.7884 148.571 36.6321C148.258 36.4759 147.858 36.3977 147.37 36.3977C146.703 36.3977 146.146 36.5516 145.701 36.8594C145.261 37.1624 145.041 37.5483 145.041 38.017C145.041 38.4337 145.192 38.7628 145.495 39.0043C145.798 39.2457 146.272 39.447 146.916 39.608L148.535 40.0057C149.511 40.2424 150.237 40.6046 150.716 41.0923C151.194 41.5753 151.433 42.1979 151.433 42.9602C151.433 43.5852 151.253 44.1439 150.893 44.6364C150.538 45.1288 150.041 45.517 149.402 45.8011C148.762 46.0852 148.019 46.2273 147.172 46.2273C146.059 46.2273 145.138 45.9858 144.409 45.5028C143.68 45.0199 143.218 44.3144 143.024 43.3864L144.615 42.9886C144.766 43.5758 145.053 44.0161 145.474 44.3097C145.9 44.6032 146.457 44.75 147.143 44.75C147.924 44.75 148.545 44.5843 149.004 44.2528C149.468 43.9167 149.7 43.5142 149.7 43.0455C149.7 42.6667 149.567 42.3494 149.302 42.0938C149.037 41.8333 148.63 41.6392 148.081 41.5114L146.262 41.0852C145.263 40.8485 144.529 40.4815 144.061 39.9844C143.597 39.4825 143.365 38.8551 143.365 38.1023C143.365 37.4867 143.538 36.9422 143.883 36.4688C144.234 35.9953 144.709 35.6236 145.311 35.3537C145.917 35.0838 146.603 34.9489 147.37 34.9489C148.45 34.9489 149.297 35.1856 149.913 35.6591C150.533 36.1326 150.974 36.7576 151.234 37.5341Z" fill="#002656"/>
</svg>
